<svg width="1920" height="1080" viewBox="0 0 1920 1080" fill="none" xmlns="http://www.w3.org/2000/svg">
<rect width="1920" height="1080" fill="white"/>
<circle cx="1851.35" cy="82.7709" r="39.0865" stroke="#838383" stroke-width="4"/>
<path d="M1841 933.525L1841 940.074L1820.18 940.074L1820.18 922.111L1825.24 922.111L1825.24 933.525L1829.37 933.525L1829.37 924.187L1834.13 924.187L1834.13 933.525L1841 933.525ZM1825.84 909.919L1825.93 908.728L1832.52 908.728C1832.12 909.445 1831.92 910.437 1831.92 911.705C1831.92 912.886 1832.2 913.777 1832.75 914.377C1833.3 914.968 1834.07 915.263 1835.05 915.263L1841 915.263L1841 921.217L1826.13 921.217L1826.13 915.263L1828.8 915.263L1828.8 914.973C1828.57 914.905 1828.22 914.692 1827.76 914.334C1827.44 914.101 1827.14 913.801 1826.87 913.433C1826.59 913.046 1826.35 912.543 1826.14 911.923C1825.94 911.294 1825.84 910.626 1825.84 909.919ZM1839.33 905.409C1838.02 907.026 1836.1 907.835 1833.57 907.835C1831.03 907.835 1829.11 907.026 1827.8 905.409C1826.49 903.802 1825.84 901.634 1825.84 898.904C1825.84 896.184 1826.49 894.02 1827.8 892.413C1829.11 890.796 1831.03 889.988 1833.57 889.988C1836.1 889.988 1838.02 890.796 1839.33 892.413C1840.64 894.02 1841.29 896.183 1841.29 898.904C1841.29 901.634 1840.64 903.802 1839.33 905.409ZM1835.6 896.769C1835.09 896.275 1834.42 896.029 1833.57 896.029C1832.71 896.029 1832.03 896.275 1831.52 896.769C1831.01 897.263 1830.76 897.974 1830.76 898.904C1830.76 899.843 1831.01 900.559 1831.52 901.053C1832.03 901.547 1832.71 901.794 1833.57 901.794C1834.42 901.794 1835.09 901.547 1835.6 901.053C1836.11 900.559 1836.37 899.843 1836.37 898.904C1836.37 897.974 1836.11 897.263 1835.6 896.769ZM1841 870.23L1841 876.17L1833.83 876.17C1832.98 876.17 1832.31 876.421 1831.81 876.925C1831.29 877.428 1831.04 878.12 1831.04 879.001C1831.04 879.902 1831.29 880.599 1831.79 881.092C1832.29 881.576 1832.96 881.819 1833.83 881.819L1841 881.819L1841 887.772L1826.13 887.772L1826.13 881.819L1828.8 881.819L1828.8 881.528C1828.57 881.46 1828.22 881.238 1827.76 880.86C1827.44 880.599 1827.14 880.279 1826.87 879.902C1826.59 879.485 1826.35 878.943 1826.14 878.275C1825.94 877.607 1825.84 876.905 1825.84 876.17C1825.84 874.33 1826.36 872.878 1827.39 871.813C1828.44 870.758 1830 870.23 1832.08 870.23L1841 870.23ZM1835.05 866.723L1830.59 866.723L1830.59 868.596L1827.77 868.596L1823.15 863.746L1823.15 860.769L1826.13 860.769L1826.13 856.732L1830.59 856.732L1830.59 860.769L1834.25 860.769C1835.09 860.769 1835.69 860.561 1836.03 860.144C1836.37 859.728 1836.54 859.084 1836.54 858.213C1836.54 857.506 1836.44 856.993 1836.24 856.674L1836.15 856.427L1840.8 856.427C1841.14 857.143 1841.3 858.048 1841.29 859.142C1841.29 861.776 1840.8 863.697 1839.81 864.907C1838.83 866.118 1837.24 866.723 1835.05 866.723ZM1833.57 837.686L1834.45 837.773L1834.45 849.26C1835.43 849.24 1836.14 849.023 1836.6 848.606C1837.06 848.18 1837.28 847.517 1837.28 846.617C1837.28 846.123 1837.18 845.683 1836.96 845.295C1836.75 844.908 1836.52 844.652 1836.27 844.526L1835.95 844.352L1835.95 838.02C1836.19 838.02 1836.54 838.107 1836.99 838.282C1837.82 838.611 1838.56 839.109 1839.18 839.777C1839.63 840.242 1840 840.765 1840.29 841.346C1840.58 841.917 1840.82 842.643 1841 843.524C1841.19 844.473 1841.29 845.504 1841.29 846.617C1841.29 849.328 1840.64 851.491 1839.34 853.108C1838.05 854.725 1836.12 855.533 1833.57 855.533C1831.03 855.533 1829.11 854.725 1827.8 853.108C1826.49 851.501 1825.84 849.332 1825.84 846.602C1825.84 843.882 1826.49 841.718 1827.8 840.111C1829.11 838.495 1831.03 837.686 1833.57 837.686ZM1829.7 846.617C1829.7 847.372 1829.91 847.972 1830.31 848.418C1830.72 848.863 1831.21 849.085 1831.78 849.085L1831.78 844.235C1831.24 844.235 1830.75 844.448 1830.33 844.874C1829.91 845.291 1829.7 845.871 1829.7 846.617ZM1841 818.074L1841 824.013L1833.83 824.013C1832.98 824.013 1832.31 824.265 1831.81 824.768C1831.29 825.272 1831.04 825.964 1831.04 826.845C1831.04 827.745 1831.29 828.442 1831.79 828.936C1832.29 829.42 1832.96 829.662 1833.83 829.662L1841 829.662L1841 835.616L1826.13 835.616L1826.13 829.662L1828.8 829.662L1828.8 829.372C1828.57 829.304 1828.22 829.081 1827.76 828.704C1827.44 828.442 1827.14 828.123 1826.87 827.745C1826.59 827.329 1826.35 826.787 1826.14 826.119C1825.94 825.451 1825.84 824.749 1825.84 824.013C1825.84 822.174 1826.36 820.722 1827.39 819.657C1828.44 818.602 1830 818.074 1832.08 818.074L1841 818.074ZM1841.29 809.295C1841.29 811.202 1840.62 812.795 1839.29 814.073C1837.95 815.35 1836.04 815.989 1833.57 815.989C1831.09 815.989 1829.18 815.35 1827.84 814.073C1826.51 812.795 1825.84 811.202 1825.84 809.295C1825.84 808.25 1825.98 807.31 1826.28 806.478C1826.59 805.655 1826.89 805.098 1827.18 804.808L1827.61 804.358L1827.61 804.096L1820.18 804.096L1820.18 798.143L1841 798.143L1841 804.096L1838.33 804.096L1838.33 804.387C1838.67 804.542 1839.01 804.755 1839.36 805.026C1839.72 805.326 1840.01 805.631 1840.24 805.941C1840.54 806.318 1840.78 806.812 1840.99 807.422C1841.19 808.022 1841.29 808.646 1841.29 809.295ZM1831.72 809.005C1832.18 809.498 1832.79 809.745 1833.57 809.745C1834.34 809.745 1834.95 809.503 1835.41 809.019C1835.86 808.535 1836.09 807.833 1836.09 806.914C1836.09 806.013 1835.87 805.321 1835.42 804.837C1834.97 804.343 1834.35 804.096 1833.57 804.096C1832.77 804.096 1832.15 804.343 1831.71 804.837C1831.26 805.331 1831.04 806.023 1831.04 806.914C1831.04 807.824 1831.27 808.521 1831.72 809.005ZM1861.1 938.84C1859.7 940.306 1857.73 941.039 1855.19 941.039C1852.64 941.039 1850.67 940.306 1849.27 938.84C1847.87 937.373 1847.16 935.362 1847.16 932.806C1847.16 930.41 1847.76 928.475 1848.95 927.001C1850.13 925.534 1851.7 924.801 1853.63 924.801L1853.63 929.887C1853.44 929.887 1853.17 929.956 1852.83 930.094C1852.57 930.196 1852.34 930.344 1852.12 930.541C1851.9 930.751 1851.72 931.056 1851.56 931.455C1851.41 931.855 1851.34 932.305 1851.34 932.806C1851.34 934.875 1852.62 935.91 1855.19 935.91C1857.77 935.91 1859.06 934.875 1859.06 932.806C1859.06 932.29 1858.98 931.837 1858.83 931.444C1858.68 931.045 1858.48 930.744 1858.24 930.541C1857.8 930.156 1857.38 929.945 1856.98 929.909L1856.76 929.887L1856.76 924.801C1858.69 924.801 1860.25 925.534 1861.43 927.001C1862.62 928.475 1863.22 930.41 1863.22 932.806C1863.22 935.354 1862.51 937.366 1861.1 938.84ZM1861.75 921.745C1860.77 922.958 1859.33 923.564 1857.42 923.564C1855.52 923.564 1854.08 922.958 1853.1 921.745C1852.12 920.54 1851.63 918.914 1851.63 916.866C1851.63 914.826 1852.12 913.203 1853.1 911.998C1854.08 910.785 1855.52 910.179 1857.42 910.179C1859.33 910.179 1860.77 910.785 1861.75 911.998C1862.73 913.203 1863.22 914.826 1863.22 916.866C1863.22 918.914 1862.73 920.54 1861.75 921.745ZM1858.95 915.265C1858.57 914.895 1858.06 914.71 1857.42 914.71C1856.78 914.71 1856.27 914.895 1855.89 915.265C1855.51 915.635 1855.32 916.169 1855.32 916.866C1855.32 917.57 1855.51 918.108 1855.89 918.478C1856.27 918.848 1856.78 919.033 1857.42 919.033C1858.06 919.033 1858.57 918.848 1858.95 918.478C1859.33 918.108 1859.53 917.57 1859.53 916.866C1859.53 916.169 1859.33 915.635 1858.95 915.265ZM1863 895.361L1863 899.815L1857.62 899.815C1856.99 899.815 1856.48 900.004 1856.11 900.382C1855.72 900.759 1855.53 901.279 1855.53 901.939C1855.53 902.615 1855.72 903.137 1856.1 903.508C1856.47 903.871 1856.97 904.052 1857.62 904.052L1863 904.052L1863 908.517L1851.85 908.517L1851.85 904.052L1853.85 904.052L1853.85 903.834C1853.68 903.783 1853.42 903.616 1853.07 903.333C1852.83 903.137 1852.61 902.898 1852.4 902.615C1852.19 902.302 1852.01 901.896 1851.86 901.395C1851.71 900.894 1851.63 900.367 1851.63 899.815C1851.63 898.436 1852.02 897.347 1852.8 896.548C1853.58 895.757 1854.75 895.361 1856.31 895.361L1863 895.361ZM1852.29 884.725L1855.64 884.725L1855.64 887.862L1863 887.862L1863 892.327L1855.64 892.327L1855.64 894.353L1853.19 894.353L1852.29 892.327L1852.02 892.327C1850.37 892.327 1849.14 891.841 1848.35 890.868C1847.56 889.888 1847.16 888.367 1847.16 886.304C1847.16 885.84 1847.21 885.393 1847.3 884.965C1847.37 884.529 1847.47 884.203 1847.57 883.985L1847.72 883.712L1851.09 883.712C1850.77 884.221 1850.62 884.816 1850.62 885.499C1850.62 887.074 1851.15 887.862 1852.21 887.862L1852.29 887.862L1852.29 884.725Z" fill="#1D1D1D"/>
<path d="M1876 934.918L1876 941.632L1874.54 941.632C1874.2 941.632 1873.9 941.552 1873.63 941.393C1873.36 941.234 1873.15 941.019 1872.99 940.748C1872.71 940.283 1872.47 939.68 1872.26 938.938C1872.21 938.725 1872.16 938.545 1872.11 938.4C1872.06 938.25 1872.01 938.095 1871.93 937.932C1871.86 937.766 1871.79 937.634 1871.72 937.535C1871.64 937.437 1871.55 937.356 1871.45 937.292C1871.34 937.227 1871.23 937.195 1871.11 937.195C1870.67 937.195 1870.45 937.52 1870.45 938.171C1870.45 938.825 1870.74 939.152 1871.31 939.152L1871.7 939.152L1871.7 941.444L1871.31 941.444C1870.37 941.444 1869.68 941.176 1869.25 940.641C1868.82 940.109 1868.61 939.287 1868.61 938.176C1868.61 937.075 1868.82 936.255 1869.23 935.716C1869.64 935.177 1870.26 934.908 1871.11 934.908C1871.58 934.908 1871.99 935.047 1872.35 935.325C1872.71 935.599 1872.98 935.94 1873.17 936.346C1873.35 936.726 1873.5 937.122 1873.64 937.535C1873.75 937.884 1873.86 938.223 1873.96 938.552C1874.05 938.833 1874.14 938.974 1874.23 938.974L1874.23 934.918L1876 934.918ZM1869.62 927.891C1870.29 927.258 1871.2 926.941 1872.36 926.941C1873.51 926.941 1874.42 927.258 1875.09 927.891C1875.76 928.525 1876.1 929.406 1876.1 930.534C1876.1 931.659 1875.76 932.538 1875.09 933.172C1874.42 933.809 1873.5 934.127 1872.36 934.127C1871.21 934.127 1870.29 933.809 1869.62 933.172C1868.95 932.535 1868.61 931.656 1868.61 930.534C1868.61 929.406 1868.95 928.525 1869.62 927.891ZM1870.56 930.534C1870.56 931.334 1871.16 931.734 1872.36 931.734C1873.56 931.734 1874.16 931.334 1874.16 930.534C1874.16 929.738 1873.56 929.34 1872.36 929.34C1871.16 929.34 1870.56 929.738 1870.56 930.534ZM1876 919.502L1876 926.216L1874.54 926.216C1874.2 926.216 1873.9 926.137 1873.63 925.977C1873.36 925.818 1873.15 925.603 1872.99 925.332C1872.71 924.868 1872.47 924.264 1872.26 923.522C1872.21 923.309 1872.16 923.129 1872.11 922.984C1872.06 922.835 1872.01 922.679 1871.93 922.516C1871.86 922.35 1871.79 922.218 1871.72 922.12C1871.64 922.021 1871.55 921.94 1871.45 921.876C1871.34 921.811 1871.23 921.779 1871.11 921.779C1870.67 921.779 1870.45 922.104 1870.45 922.755C1870.45 923.409 1870.74 923.736 1871.31 923.736L1871.7 923.736L1871.7 926.028L1871.31 926.028C1870.37 926.028 1869.68 925.76 1869.25 925.225C1868.82 924.693 1868.61 923.871 1868.61 922.76C1868.61 921.659 1868.82 920.839 1869.23 920.3C1869.64 919.761 1870.26 919.492 1871.11 919.492C1871.58 919.492 1871.99 919.631 1872.35 919.909C1872.71 920.183 1872.98 920.524 1873.17 920.93C1873.35 921.31 1873.5 921.706 1873.64 922.12C1873.75 922.469 1873.86 922.807 1873.96 923.136C1874.05 923.417 1874.14 923.558 1874.23 923.558L1874.23 919.502L1876 919.502ZM1871.11 914.829C1871.11 913.968 1871.3 913.292 1871.69 912.801C1872.08 912.313 1872.68 912.069 1873.49 912.069C1874.35 912.069 1875 912.345 1875.44 912.897C1875.88 913.446 1876.1 914.259 1876.1 915.337C1876.1 916.404 1875.89 917.216 1875.48 917.771C1875.07 918.327 1874.48 918.605 1873.71 918.605L1873.71 916.318C1873.71 916.321 1873.73 916.321 1873.76 916.318C1873.79 916.311 1873.84 916.291 1873.9 916.257C1873.95 916.223 1874 916.175 1874.05 916.114C1874.17 915.942 1874.23 915.682 1874.23 915.337C1874.23 915.008 1874.17 914.762 1874.05 914.6C1873.92 914.437 1873.74 914.358 1873.49 914.361C1873.24 914.361 1873.05 914.447 1872.92 914.62C1872.79 914.793 1872.72 915.032 1872.72 915.337C1872.72 915.665 1872.76 915.906 1872.84 916.058C1872.91 916.191 1872.98 916.269 1873.04 916.292L1873.09 916.318L1873.09 918.605L1868.71 918.605L1868.71 912.567L1870.49 912.567L1870.49 916.379L1871.42 916.379L1871.42 916.328C1871.39 916.297 1871.36 916.252 1871.33 916.191C1871.3 916.133 1871.25 915.974 1871.19 915.713C1871.13 915.445 1871.11 915.15 1871.11 914.829Z" fill="#FF4140"/>
<path fill-rule="evenodd" clip-rule="evenodd" d="M1811.87 981.411C1811.6 977.352 1811.46 975.323 1812.16 973.712C1812.78 972.294 1813.84 971.101 1815.19 970.299C1816.72 969.389 1818.8 969.225 1822.95 968.897L1872.75 964.973C1877.53 964.596 1879.92 964.408 1881.72 965.218C1883.3 965.928 1884.58 967.149 1885.34 968.673C1886.21 970.409 1886.07 972.743 1885.78 977.411L1882.72 1027.87C1882.48 1031.85 1882.36 1033.84 1881.48 1035.34C1880.71 1036.66 1879.53 1037.71 1878.12 1038.36C1876.52 1039.09 1874.48 1039.04 1870.38 1038.95L1826.72 1037.98C1822.82 1037.89 1820.87 1037.85 1819.34 1037.1C1818 1036.44 1816.89 1035.4 1816.16 1034.12C1815.32 1032.67 1815.2 1030.77 1814.94 1026.98L1811.87 981.411Z" fill="#FFED00"/>
<path d="M1863.29 1020.09L1863.29 1029.19L1834.36 1029.19L1834.36 1004.23L1841.4 1004.23L1841.4 1020.09L1847.13 1020.09L1847.13 1007.11L1853.75 1007.11L1853.75 1020.09L1863.29 1020.09Z" fill="#1D1D1D"/>
<path d="M1859.78 999.958C1857.18 1002.68 1853.53 1004.03 1848.83 1004.03C1844.1 1004.03 1840.45 1002.68 1837.85 999.958C1835.25 997.241 1833.96 993.515 1833.96 988.781C1833.96 984.342 1835.06 980.757 1837.26 978.027C1839.46 975.31 1842.35 973.951 1845.94 973.951L1845.94 983.373C1845.58 983.373 1845.08 983.501 1844.45 983.757C1843.98 983.945 1843.54 984.221 1843.14 984.584C1842.73 984.974 1842.39 985.539 1842.11 986.279C1841.82 987.019 1841.68 987.853 1841.68 988.781C1841.68 992.614 1844.06 994.531 1848.83 994.531C1853.6 994.531 1855.99 992.614 1855.99 988.781C1855.99 987.826 1855.85 986.985 1855.56 986.259C1855.28 985.519 1854.92 984.961 1854.47 984.584C1853.67 983.871 1852.89 983.481 1852.13 983.414L1851.73 983.373L1851.73 973.951C1855.31 973.951 1858.19 975.31 1860.39 978.027C1862.59 980.757 1863.7 984.342 1863.7 988.781C1863.7 993.502 1862.39 997.228 1859.78 999.958Z" fill="#1D1D1D"/>
</svg>
